<svg width="13" height="13" viewBox="0 0 13 13" fill="none" xmlns="http://www.w3.org/2000/svg">
<path fill-rule="evenodd" clip-rule="evenodd" d="M0 6.50004C0 6.24362 0.207868 6.03575 0.464286 6.03575H12.5357C12.7921 6.03575 13 6.24362 13 6.50004C13 6.75646 12.7921 6.96432 12.5357 6.96432H0.464286C0.207868 6.96432 0 6.75646 0 6.50004Z" fill="#9B9A9A"/>
<path fill-rule="evenodd" clip-rule="evenodd" d="M6.8283 0.135986C7.00961 0.317301 7.00961 0.61127 6.8283 0.792585L1.12089 6.5L6.8283 12.2074C7.00961 12.3887 7.00961 12.6827 6.8283 12.864C6.64699 13.0453 6.35302 13.0453 6.1717 12.864L0.135986 6.8283C-0.0453287 6.64698 -0.0453287 6.35302 0.135986 6.1717L6.1717 0.135986C6.35302 -0.0453287 6.64699 -0.0453287 6.8283 0.135986Z" fill="#9B9A9A"/>
</svg>
