<svg width="11" height="18" viewBox="0 0 11 18" fill="none" xmlns="http://www.w3.org/2000/svg">
<path d="M5.5242 9.30297C8.21994 9.30297 10.4175 7.21399 10.4175 4.65148C10.4175 2.08899 8.21994 0 5.5242 0C2.79917 0 0.601562 2.08899 0.601562 4.65148C0.601562 7.21399 2.79917 9.30297 5.5242 9.30297ZM5.5242 2.72962C6.63766 2.72962 7.546 3.59306 7.546 4.65148C7.546 5.7099 6.63766 6.57336 5.5242 6.57336C4.41075 6.57336 3.50241 5.7099 3.50241 4.65148C3.47311 3.59306 4.38145 2.72962 5.5242 2.72962Z" fill="#9DAABE"/>
<path d="M7.48598 13.1187C8.48223 12.8959 9.44918 12.5338 10.3282 12.0046C11.0021 11.6147 11.2073 10.7512 10.7677 10.1106C10.3575 9.47 9.44918 9.27503 8.77525 9.69282C6.78275 10.8905 4.17492 10.8905 2.18243 9.69282C1.5085 9.30287 0.629452 9.47 0.189931 10.1106C-0.190987 10.7512 0.0141225 11.5868 0.688055 11.9768C1.5671 12.506 2.53404 12.8681 3.53029 13.0909L0.805261 15.6813C0.248534 16.2105 0.248534 17.074 0.805261 17.6032C1.09828 17.8817 1.44989 17.9931 1.83081 17.9931C2.21173 17.9931 2.56334 17.8538 2.85636 17.6032L5.55209 15.0406L8.24782 17.6032C8.80454 18.1323 9.71289 18.1323 10.2696 17.6032C10.8263 17.074 10.8263 16.2105 10.2696 15.6813L7.48598 13.1187Z" fill="#9DAABE"/>
</svg>
