<svg width="27" height="27" viewBox="0 0 27 27" fill="none" xmlns="http://www.w3.org/2000/svg">
<path fill-rule="evenodd" clip-rule="evenodd" d="M12.2085 3.16668C7.21492 3.16668 3.16683 7.21477 3.16683 12.2083C3.16683 17.2019 7.21492 21.25 12.2085 21.25C17.2021 21.25 21.2502 17.2019 21.2502 12.2083C21.2502 7.21477 17.2021 3.16668 12.2085 3.16668ZM0.583496 12.2083C0.583496 5.78803 5.78819 0.583344 12.2085 0.583344C18.6288 0.583344 23.8335 5.78803 23.8335 12.2083C23.8335 18.6287 18.6288 23.8333 12.2085 23.8333C5.78819 23.8333 0.583496 18.6287 0.583496 12.2083Z" fill="#9DAABE"/>
<path fill-rule="evenodd" clip-rule="evenodd" d="M18.5932 18.593C19.0976 18.0885 19.9154 18.0885 20.4199 18.593L26.0386 24.2117C26.543 24.7161 26.543 25.534 26.0386 26.0384C25.5342 26.5428 24.7163 26.5428 24.2119 26.0384L18.5932 20.4196C18.0887 19.9152 18.0887 19.0974 18.5932 18.593Z" fill="#9DAABE"/>
</svg>
