<svg width="35" height="21" viewBox="0 0 35 21" fill="none" xmlns="http://www.w3.org/2000/svg">
<g clip-path="url(#clip0_30_664)">
<path d="M21.2937 2.21143H12.2178V18.4663H21.2937V2.21143Z" fill="#FF5A00"/>
<path d="M12.8218 10.3391C12.8218 7.03662 14.3792 4.10553 16.7689 2.2117C15.0102 0.833152 12.7916 0 10.3715 0C4.63866 0 0 4.62416 0 10.3391C0 16.054 4.63866 20.6782 10.3715 20.6782C12.7916 20.6782 15.0102 19.8452 16.7689 18.4666C14.3759 16.5994 12.8218 13.6416 12.8218 10.3391Z" fill="#EB001B"/>
<path d="M33.5381 10.3391C33.5381 16.054 28.8994 20.6782 23.1665 20.6782C20.7465 20.6782 18.5279 19.8452 16.769 18.4666C19.1891 16.5694 20.7163 13.6416 20.7163 10.3391C20.7163 7.03662 19.1588 4.10553 16.769 2.2117C18.5245 0.833152 20.7431 0 23.1632 0C28.8994 0 33.5381 4.65427 33.5381 10.3391Z" fill="#F79E1B"/>
</g>
<defs>
<clipPath id="clip0_30_664">
<rect width="34.2593" height="20.5556" fill="white"/>
</clipPath>
</defs>
</svg>
