<svg width="42" height="21" viewBox="0 0 42 21" fill="none" xmlns="http://www.w3.org/2000/svg">
<g clip-path="url(#clip0_808_77)">
<path fill-rule="evenodd" clip-rule="evenodd" d="M42 10.5C42 9.77513 41.3999 9.1875 40.6596 9.1875L1.78725 9.1875C1.04695 9.1875 0.446819 9.77513 0.446819 10.5C0.446819 11.2249 1.04695 11.8125 1.78725 11.8125L40.6596 11.8125C41.3999 11.8125 42 11.2249 42 10.5Z" fill="#DCE3ED"/>
<path fill-rule="evenodd" clip-rule="evenodd" d="M12.1181 0.384422C11.5947 -0.128141 10.746 -0.128141 10.2225 0.384422L0.839518 9.57192C0.316049 10.0845 0.316049 10.9155 0.839518 11.4281L10.2225 20.6156C10.746 21.1281 11.5947 21.1281 12.1181 20.6156C12.6416 20.103 12.6416 19.272 12.1181 18.7594L3.68299 10.5L12.1181 2.24058C12.6416 1.72801 12.6416 0.896985 12.1181 0.384422Z" fill="#DCE3ED"/>
</g>
<defs>
<clipPath id="clip0_808_77">
<rect width="42" height="21" fill="white" transform="matrix(-1 0 0 1 42 0)"/>
</clipPath>
</defs>
</svg>
