<svg width="65" height="21" viewBox="0 0 65 21" fill="none" xmlns="http://www.w3.org/2000/svg">
<g clip-path="url(#clip0_30_658)">
<path d="M42.461 0.0314941C37.9589 0.0314941 33.9356 2.35912 33.9356 6.65959C33.9356 11.5914 41.071 11.9321 41.071 14.4096C41.071 15.4529 39.8725 16.3868 37.8254 16.3868C34.9201 16.3868 32.7488 15.0819 32.7488 15.0819L31.8198 19.4215C31.8198 19.4215 34.3211 20.5238 37.6421 20.5238C42.5643 20.5238 46.4375 18.0818 46.4375 13.7079C46.4375 8.49645 39.2723 8.16593 39.2723 5.8663C39.2723 5.04909 40.2562 4.15367 42.2974 4.15367C44.6005 4.15367 46.4796 5.10266 46.4796 5.10266L47.3888 0.911287C47.3888 0.911287 45.3442 0.0314941 42.461 0.0314941ZM1.27112 0.347825L1.16211 0.980484C1.16211 0.980484 3.05615 1.32625 4.76204 2.01597C6.95851 2.80688 7.11498 3.2673 7.4849 4.69736L11.5159 20.1975H16.9195L25.2442 0.347825H19.853L14.5039 13.8438L12.3211 2.40396C12.121 1.0947 11.107 0.347825 9.86586 0.347825H1.27112ZM27.4121 0.347825L23.1829 20.1975H28.3238L32.5383 0.347825H27.4121ZM56.0852 0.347825C54.8454 0.347825 54.1886 1.00985 53.7067 2.16672L46.1748 20.1975H51.566L52.6091 17.1924H59.1772L59.8115 20.1975H64.5685L60.4185 0.347825H56.0852ZM56.7863 5.71061L58.3844 13.1592H54.1031L56.7863 5.71061Z" fill="#1434CB"/>
</g>
<defs>
<clipPath id="clip0_30_658">
<rect width="64.4074" height="20.5556" fill="white" transform="translate(0.481445)"/>
</clipPath>
</defs>
</svg>
