<svg width="28" height="28" viewBox="0 0 28 28" fill="none" xmlns="http://www.w3.org/2000/svg">
<path d="M5.96129 3.38288C8.14084 1.71105 10.8554 0.835753 13.5886 0.692129C13.4886 3.16293 13.5258 5.6823 12.8419 8.07899C12.5921 9.02222 12.1394 9.9002 11.5153 10.6522C10.8912 11.4043 10.1105 12.0124 9.22715 12.4346C6.53816 13.5901 3.5398 13.5044 0.669292 13.6202C0.669292 9.63735 2.76281 5.74486 5.96129 3.38288ZM14.4028 0.666672C16.8219 0.868179 19.2457 1.50029 21.2741 2.87346C23.0807 4.04387 24.575 5.63319 25.6289 7.50502C26.6827 9.37685 27.2645 11.4753 27.3244 13.6202C24.6679 13.5276 21.9347 13.5647 19.3899 12.6963C18.4674 12.3784 17.6276 11.86 16.9316 11.1787C16.2355 10.4974 15.7006 9.67027 15.3658 8.75745C14.426 6.17551 14.4493 3.37593 14.4028 0.666672ZM19.8715 15.1671C22.2999 14.5025 24.8354 14.4817 27.3337 14.4238C27.2359 17.8373 25.8127 21.0802 23.363 23.4709C20.9653 25.8278 17.7676 27.205 14.4004 27.331C14.4655 24.573 14.4191 21.7156 15.4286 19.0989C16.1473 17.1655 17.9013 15.7251 19.8715 15.1671ZM0.667066 14.4284C3.68626 14.5349 6.91032 14.3959 9.66445 15.8363C11.5486 16.7949 12.6581 18.7887 13.0536 20.7963C13.5049 22.9453 13.5188 25.1497 13.5747 27.3333C11.7877 27.265 10.0319 26.8456 8.40832 26.0993C6.78475 25.3529 5.32544 24.2944 4.11432 22.9846C2.00921 20.6596 0.655457 17.5799 0.667066 14.4284Z" fill="#9DAABE"/>
</svg>
