<svg width="70" height="21" viewBox="0 0 70 21" fill="none" xmlns="http://www.w3.org/2000/svg">
<path fill-rule="evenodd" clip-rule="evenodd" d="M12.0792 2.22962C12.6179 2.2264 14.2188 2.08221 14.897 4.37086C15.3538 5.91253 16.0814 8.43785 17.0799 11.9468H17.4865C18.5573 8.24742 19.2929 5.7221 19.6933 4.37086C20.3785 2.05836 22.0915 2.22966 22.7766 2.22966L28.063 2.22967V18.6741H22.675V8.98311H22.3136L19.31 18.6741H15.2563L12.2527 8.97592H11.8914V18.6741H6.50342V2.22967L12.0792 2.22962ZM35.8 2.22967V11.9278H36.2298L39.8834 3.95311C40.5925 2.36611 42.1042 2.22967 42.1042 2.22967H47.3182V18.6741H41.8177V8.97592H41.3878L37.8059 16.9506C37.0966 18.5305 35.5134 18.6741 35.5134 18.6741H30.2994V2.22967H35.8ZM66.3304 10.0442C65.5632 12.2184 63.1536 13.7756 60.4859 13.7756H54.7176V18.6741H49.4869V10.0442H66.3304Z" fill="#0F754E"/>
<path fill-rule="evenodd" clip-rule="evenodd" d="M60.738 2.22949H49.2124C49.4866 5.89059 52.6396 9.02472 55.9034 9.02472H66.6937C67.3164 5.98192 65.1727 2.22949 60.738 2.22949Z" fill="url(#paint0_linear_30_661)"/>
<defs>
<linearGradient id="paint0_linear_30_661" x1="66.7995" y1="6.50398" x2="49.2124" y2="6.50398" gradientUnits="userSpaceOnUse">
<stop stop-color="#1F5CD7"/>
<stop offset="1" stop-color="#02AEFF"/>
</linearGradient>
</defs>
</svg>
