<svg width="42" height="21" viewBox="0 0 42 21" fill="none" xmlns="http://www.w3.org/2000/svg">
<g clip-path="url(#clip0_808_72)">
<path fill-rule="evenodd" clip-rule="evenodd" d="M0 10.5C0 9.77513 0.600129 9.1875 1.34043 9.1875L40.2128 9.1875C40.953 9.1875 41.5532 9.77513 41.5532 10.5C41.5532 11.2249 40.953 11.8125 40.2128 11.8125L1.34043 11.8125C0.600129 11.8125 0 11.2249 0 10.5Z" fill="#DCE3ED"/>
<path fill-rule="evenodd" clip-rule="evenodd" d="M29.8828 0.384422C30.4063 -0.128141 31.255 -0.128141 31.7785 0.384422L41.1615 9.57192C41.6849 10.0845 41.6849 10.9155 41.1615 11.4281L31.7785 20.6156C31.255 21.1281 30.4063 21.1281 29.8828 20.6156C29.3594 20.103 29.3594 19.272 29.8828 18.7594L38.318 10.5L29.8828 2.24058C29.3594 1.72801 29.3594 0.896985 29.8828 0.384422Z" fill="#DCE3ED"/>
</g>
<defs>
<clipPath id="clip0_808_72">
<rect width="42" height="21" fill="white"/>
</clipPath>
</defs>
</svg>
