<svg display="none" xmlns="http://www.w3.org/2000/svg">

  <!-- LOGO -->
  <symbol id="logo" viewBox="0 0 167 31">
    <path d="M99.207 30L99.1749 10.832L89.7989 27.024H88.999L79.6229 10.896V30H78.0229V7.60001H79.3989L89.4149 24.912L99.431 7.60001H100.775L100.807 30H99.207Z"
          fill="#2C2929"/>
    <path d="M110.377 13.168C112.446 13.168 114.035 13.7013 115.145 14.768C116.254 15.8133 116.809 17.36 116.809 19.408V30H115.273V27.024C114.739 28.0053 113.961 28.7733 112.937 29.328C111.913 29.8613 110.686 30.128 109.257 30.128C107.401 30.128 105.929 29.6907 104.841 28.816C103.774 27.9413 103.241 26.7893 103.241 25.36C103.241 23.9733 103.731 22.8533 104.713 22C105.715 21.1253 107.305 20.688 109.481 20.688H115.209V19.344C115.209 17.7867 114.782 16.6027 113.929 15.792C113.097 14.9813 111.87 14.576 110.249 14.576C109.139 14.576 108.073 14.768 107.049 15.152C106.046 15.536 105.193 16.048 104.489 16.688L103.689 15.536C104.521 14.7893 105.523 14.2133 106.697 13.808C107.87 13.3813 109.097 13.168 110.377 13.168ZM109.481 28.816C110.867 28.816 112.041 28.496 113.001 27.856C113.982 27.216 114.718 26.288 115.209 25.072V21.936H109.513C107.87 21.936 106.675 22.2347 105.929 22.832C105.203 23.4293 104.841 24.2507 104.841 25.296C104.841 26.384 105.246 27.248 106.057 27.888C106.867 28.5067 108.009 28.816 109.481 28.816Z"
          fill="#2C2929"/>
    <path d="M121.577 16.944C122.089 15.728 122.889 14.8 123.977 14.16C125.065 13.4987 126.388 13.168 127.945 13.168V14.736L127.561 14.704C125.705 14.704 124.254 15.2907 123.209 16.464C122.164 17.616 121.641 19.2267 121.641 21.296V30H120.041V13.296H121.577V16.944Z"
          fill="#2C2929"/>
    <path d="M128.993 13.296H130.593V30H128.993V13.296ZM129.793 9.23201C129.431 9.23201 129.121 9.11468 128.865 8.88001C128.609 8.62401 128.481 8.31468 128.481 7.95201C128.481 7.58935 128.609 7.28001 128.865 7.02401C129.121 6.76801 129.431 6.64001 129.793 6.64001C130.156 6.64001 130.465 6.76801 130.721 7.02401C130.977 7.25868 131.105 7.55735 131.105 7.92001C131.105 8.28268 130.977 8.59201 130.721 8.84801C130.465 9.10401 130.156 9.23201 129.793 9.23201Z"
          fill="#2C2929"/>
    <path d="M142.137 13.168C144.228 13.168 145.881 13.776 147.097 14.992C148.313 16.208 148.921 17.9573 148.921 20.24V30H147.321V20.368C147.321 18.4907 146.841 17.0613 145.881 16.08C144.943 15.0987 143.62 14.608 141.913 14.608C139.951 14.608 138.404 15.1947 137.273 16.368C136.143 17.5413 135.577 19.12 135.577 21.104V30H133.977V13.296H135.513V16.912C136.089 15.7387 136.943 14.8213 138.073 14.16C139.225 13.4987 140.58 13.168 142.137 13.168Z"
          fill="#2C2929"/>
    <path d="M166.292 22.032H151.924C151.966 23.3333 152.297 24.496 152.916 25.52C153.534 26.5227 154.366 27.3013 155.412 27.856C156.478 28.4107 157.673 28.688 158.996 28.688C160.084 28.688 161.086 28.496 162.004 28.112C162.942 27.7067 163.721 27.12 164.34 26.352L165.268 27.408C164.542 28.2827 163.625 28.9547 162.516 29.424C161.428 29.8933 160.244 30.128 158.964 30.128C157.3 30.128 155.817 29.7654 154.516 29.04C153.214 28.3147 152.19 27.312 151.444 26.032C150.718 24.752 150.356 23.2907 150.356 21.648C150.356 20.0267 150.697 18.576 151.38 17.296C152.084 15.9947 153.044 14.9813 154.26 14.256C155.476 13.5307 156.841 13.168 158.356 13.168C159.87 13.168 161.225 13.5307 162.42 14.256C163.636 14.96 164.585 15.952 165.268 17.232C165.972 18.512 166.324 19.9627 166.324 21.584L166.292 22.032ZM158.356 14.576C157.182 14.576 156.126 14.8427 155.188 15.376C154.249 15.888 153.492 16.624 152.916 17.584C152.361 18.5227 152.041 19.5893 151.956 20.784H164.756C164.692 19.5893 164.372 18.5227 163.796 17.584C163.22 16.6453 162.462 15.9093 161.524 15.376C160.585 14.8427 159.529 14.576 158.356 14.576Z"
          fill="#2C2929"/>
    <path d="M7.25828 13.4275L18.3859 13.405C18.3859 13.405 21.192 13.1104 21.1869 10.3531C21.1814 7.51865 18.3737 7.23462 18.3737 7.23462L7.24601 7.2562L7.25828 13.4275ZM7.2714 20.0838C7.28114 25.025 7.28072 24.876 7.29045 29.8167L0.0584153 29.8311L0 0.0360196L18.3677 3.64803e-05C27.737 -0.0181653 28.7055 6.77957 28.7118 10.0483C28.7186 13.5121 27.6604 17.7722 22.9131 19.393L29.5648 29.7735L21.3795 29.7892L16.8202 22.6939C16.258 21.8185 15.6959 20.9435 15.1333 20.0686L7.2714 20.0838Z"
          fill="#252525"/>
    <path d="M35.4782 29.7516L35.449 15.1458L29.2236 15.158L29.2202 13.403L48.0984 13.3662L44.0974 15.1288L37.204 15.1424L37.2328 29.7483L35.4782 29.7516Z"
          fill="#252525"/>
    <path d="M40.4606 21.8045C40.4669 25.1223 43.5401 27.9809 47.8044 27.9724C52.2723 27.9639 55.13 24.9585 55.1236 21.5472C55.1173 18.2395 52.2359 15.1126 47.7794 15.1215C43.0207 15.1308 40.4534 18.259 40.4606 21.8045ZM38.7056 21.7749C38.6963 17.0594 41.8113 13.3682 47.7891 13.3563C53.593 13.3449 56.8651 17.034 56.8739 21.5548C56.8833 26.1768 53.4736 29.7261 47.8078 29.7371C42.2748 29.7481 38.7141 26.1802 38.7056 21.7749Z"
          fill="#252525"/>
    <path d="M58.4947 21.4753L64.3163 21.4638C66.7685 21.4592 68.7394 20.6477 68.7347 18.2971C68.7301 15.8281 66.7147 15.395 64.2507 15.3997L58.4829 15.4111L58.4947 21.4753ZM56.8155 29.7097L56.7842 13.687L63.0202 13.6747C66.8083 13.6675 70.4448 14.3474 70.4525 18.2938C70.4597 22.0052 67.2341 23.1757 63.2627 23.1837L58.4981 23.193L58.5108 29.7063L56.8155 29.7097Z"
          fill="#252525"/>
    <path d="M70.4689 27.9336L68.7139 27.9369L68.7172 29.6915L70.4722 29.6881L70.4689 27.9336Z" fill="#252525"/>
  </symbol>

  <!-- favourites  -->
  <symbol id="favourites" viewBox="0 0 32 32">
    <path d="M19.2823 3.32432C20.3341 2.88852 21.4614 2.66422 22.5998 2.66422C23.7383 2.66422 24.8656 2.88852 25.9174 3.32432C26.9689 3.76003 27.9244 4.39862 28.7291 5.20362C29.5341 6.00836 30.1731 6.96423 30.6088 8.01579C31.0446 9.06754 31.2689 10.1948 31.2689 11.3333C31.2689 12.4718 31.0446 13.5991 30.6088 14.6508C30.1731 15.7025 29.5344 16.658 28.7293 17.4628C28.7292 17.4629 28.7294 17.4627 28.7293 17.4628L16.9426 29.2495C16.4219 29.7702 15.5777 29.7702 15.057 29.2495L3.27036 17.4628C1.64472 15.8372 0.731445 13.6323 0.731445 11.3333C0.731445 9.03432 1.64472 6.82948 3.27036 5.20384C4.896 3.5782 7.10083 2.66493 9.39983 2.66493C11.6988 2.66493 13.9037 3.5782 15.5293 5.20384L15.9998 5.67437L16.4701 5.20406C16.4702 5.20399 16.4701 5.20414 16.4701 5.20406C17.2749 4.39896 18.2306 3.76007 19.2823 3.32432ZM22.5998 5.33088C21.8117 5.33088 21.0312 5.48617 20.3031 5.78787C19.5749 6.08958 18.9134 6.53179 18.3562 7.08924L16.9426 8.50279C16.4219 9.02349 15.5777 9.02349 15.057 8.50279L13.6437 7.08946C12.5181 5.96392 10.9916 5.33159 9.39983 5.33159C7.80808 5.33159 6.28152 5.96392 5.15598 7.08946C4.03043 8.215 3.39811 9.74156 3.39811 11.3333C3.39811 12.9251 4.03043 14.4516 5.15598 15.5772L15.9998 26.421L26.8437 15.5772C27.4011 15.02 27.8436 14.3582 28.1453 13.6301C28.447 12.9019 28.6023 12.1215 28.6023 11.3333C28.6023 10.5451 28.447 9.7647 28.1453 9.03656C27.8436 8.30843 27.4014 7.64687 26.8439 7.08968C26.2867 6.53223 25.6247 6.08958 24.8966 5.78787C24.1684 5.48617 23.388 5.33088 22.5998 5.33088Z"/>
  </symbol>

  <!-- basket -->
  <symbol id="basket" viewBox="0 0 32 32">
    <g clip-path="url(#clip0_26_387)">
      <path d="M9.3335 28C9.3335 26.5272 10.5274 25.3333 12.0002 25.3333C13.4729 25.3333 14.6668 26.5272 14.6668 28C14.6668 29.4728 13.4729 30.6667 12.0002 30.6667C10.5274 30.6667 9.3335 29.4728 9.3335 28Z"/>
      <path d="M24 28C24 26.5272 25.1939 25.3333 26.6667 25.3333C28.1394 25.3333 29.3333 26.5272 29.3333 28C29.3333 29.4728 28.1394 30.6667 26.6667 30.6667C25.1939 30.6667 24 29.4728 24 28Z"/>
      <path d="M0 1.33333C0 0.596954 0.596954 0 1.33333 0H6.66667C7.30217 0 7.84935 0.448514 7.97407 1.07166L9.09391 6.66667H30.6667C31.064 6.66667 31.4407 6.8439 31.694 7.15007C31.9473 7.45624 32.0508 7.85944 31.9764 8.24977L29.8412 19.4464C29.6583 20.3672 29.1573 21.1943 28.426 21.783C27.6984 22.3688 26.7888 22.6813 25.8551 22.6667H12.9182C11.9845 22.6813 11.0749 22.3688 10.3473 21.783C9.61633 21.1946 9.11551 20.3679 8.93244 19.4476C8.93236 19.4472 8.93251 19.4479 8.93244 19.4476L6.70505 8.31894C6.69602 8.28213 6.68851 8.24471 6.6826 8.20677L5.57375 2.66667H1.33333C0.596954 2.66667 0 2.06971 0 1.33333ZM9.62764 9.33333L11.5478 18.9269C11.6087 19.2338 11.7757 19.5096 12.0195 19.7058C12.2632 19.902 12.5683 20.0062 12.8811 20.0002L12.9067 20H25.8667L25.8922 20.0002C26.2051 20.0062 26.5101 19.902 26.7539 19.7058C26.9965 19.5105 27.163 19.2364 27.2247 18.9312L29.055 9.33333H9.62764Z"/>
    </g>
  </symbol>

  <!-- search -->
  <symbol id="search" viewBox="0 0 27 27">
    <path d="M12.2085 3.16668C7.21492 3.16668 3.16683 7.21477 3.16683 12.2083C3.16683 17.2019 7.21492 21.25 12.2085 21.25C17.2021 21.25 21.2502 17.2019 21.2502 12.2083C21.2502 7.21477 17.2021 3.16668 12.2085 3.16668ZM0.583496 12.2083C0.583496 5.78803 5.78819 0.583344 12.2085 0.583344C18.6288 0.583344 23.8335 5.78803 23.8335 12.2083C23.8335 18.6287 18.6288 23.8333 12.2085 23.8333C5.78819 23.8333 0.583496 18.6287 0.583496 12.2083Z"/>
    <path d="M18.5932 18.593C19.0976 18.0885 19.9154 18.0885 20.4199 18.593L26.0386 24.2117C26.543 24.7161 26.543 25.534 26.0386 26.0384C25.5342 26.5428 24.7163 26.5428 24.2119 26.0384L18.5932 20.4196C18.0887 19.9152 18.0887 19.0974 18.5932 18.593Z"/>
  </symbol>

  <!-- slider-prev-arrow -->
  <!--  <symbol id="slider-prev-arrow" viewBox="0 0 15 27">-->
  <!--    <path d="M14.6006 0.395406C14.0681 -0.131802 13.2047 -0.131802 12.6721 0.395406L0.3994 12.5454C-0.133133 13.0726 -0.133133 13.9274 0.3994 14.4546L12.6721 26.6046C13.2047 27.1318 14.0681 27.1318 14.6006 26.6046C15.1331 26.0774 15.1331 25.2226 14.6006 24.6954L3.29211 13.5L14.6006 2.30459C15.1331 1.77739 15.1331 0.922614 14.6006 0.395406Z"/>-->
  <!--  </symbol>-->

  <!-- slider-next-arrow -->
  <!--  <symbol id="slider-next-arrow" viewBox="0 0 27 27">-->
  <!--    <path d="M0.3994 0.395406C0.931933 -0.131802 1.79534 -0.131802 2.32787 0.395406L14.6006 12.5454C15.1331 13.0726 15.1331 13.9274 14.6006 14.4546L2.32787 26.6046C1.79534 27.1318 0.931933 27.1318 0.3994 26.6046C-0.133133 26.0774 -0.133133 25.2226 0.3994 24.6954L11.7079 13.5L0.3994 2.30459C-0.133133 1.77739 -0.133133 0.922614 0.3994 0.395406Z"/>-->
  <!--  </symbol>-->

  <!-- slider-prev -->
  <!--  <symbol id="slider-prev" viewBox="0 0 47 24">-->
  <!--    <g clip-path="url(#clip0_14_365)">-->
  <!--      <path d="M47 12C47 11.1716 46.3284 10.5 45.5 10.5L2.00001 10.5C1.17159 10.5 0.500011 11.1716 0.500011 12C0.500011 12.8284 1.17159 13.5 2.00001 13.5L45.5 13.5C46.3284 13.5 47 12.8284 47 12Z"/>-->
  <!--      <path d="M13.5607 0.43934C12.9749 -0.146447 12.0251 -0.146447 11.4393 0.43934L0.939344 10.9393C0.353558 11.5251 0.353558 12.4749 0.939344 13.0607L11.4393 23.5607C12.0251 24.1464 12.9749 24.1464 13.5607 23.5607C14.1464 22.9749 14.1464 22.0251 13.5607 21.4393L4.12132 12L13.5607 2.56066C14.1464 1.97487 14.1464 1.02513 13.5607 0.43934Z"/>-->
  <!--    </g>-->
  <!--    <defs>-->
  <!--      <clipPath id="clip0_14_365">-->
  <!--        <rect width="47" height="24" fill="white" transform="matrix(-1 0 0 1 47 0)"/>-->
  <!--      </clipPath>-->
  <!--    </defs>-->
  <!--  </symbol>-->

  <!-- slider-next -->
  <!--  <symbol id="slider-next" viewBox="0 0 27 27">-->
  <!--    <g clip-path="url(#clip0_14_353)">-->
  <!--      <path d="M0 12C0 11.1716 0.671573 10.5 1.5 10.5L45 10.5C45.8284 10.5 46.5 11.1716 46.5 12C46.5 12.8284 45.8284 13.5 45 13.5L1.5 13.5C0.671573 13.5 0 12.8284 0 12Z"/>-->
  <!--      <path d="M33.4393 0.43934C34.0251 -0.146447 34.9749 -0.146447 35.5607 0.43934L46.0607 10.9393C46.6464 11.5251 46.6464 12.4749 46.0607 13.0607L35.5607 23.5607C34.9749 24.1464 34.0251 24.1464 33.4393 23.5607C32.8536 22.9749 32.8536 22.0251 33.4393 21.4393L42.8787 12L33.4393 2.56066C32.8536 1.97487 32.8536 1.02513 33.4393 0.43934Z"/>-->
  <!--    </g>-->
  <!--    <defs>-->
  <!--      <clipPath id="clip0_14_353">-->
  <!--        <rect width="47" height="24" fill="white"/>-->
  <!--      </clipPath>-->
  <!--    </defs>-->
  <!--  </symbol>-->

  <!-- VK -->
  <symbol id="vk" viewBox="0 0 30 18">
    <path d="M16.2698 17.8889C6.55143 17.8889 1.00831 11.2156 0.777344 0.111115H5.64541C5.80531 8.26149 9.39409 11.7138 12.2368 12.4257V0.111115H16.8207V7.14037C19.6279 6.83784 22.5768 3.63464 23.5717 0.111115H28.1556C27.3916 4.45323 24.1936 7.65644 21.9195 8.97331C24.1936 10.041 27.836 12.835 29.2218 17.8889H24.1759C23.0921 14.5077 20.3918 11.8918 16.8207 11.5359V17.8889H16.2698Z"/>
  </symbol>

  <!-- Dzen -->
  <symbol id="dzen" viewBox="0 0 28 28">
    <path d="M5.96129 3.38288C8.14084 1.71105 10.8554 0.835753 13.5886 0.692129C13.4886 3.16293 13.5258 5.6823 12.8419 8.07899C12.5921 9.02222 12.1394 9.9002 11.5153 10.6522C10.8912 11.4043 10.1105 12.0124 9.22715 12.4346C6.53816 13.5901 3.5398 13.5044 0.669292 13.6202C0.669292 9.63735 2.76281 5.74486 5.96129 3.38288ZM14.4028 0.666672C16.8219 0.868179 19.2457 1.50029 21.2741 2.87346C23.0807 4.04387 24.575 5.63319 25.6289 7.50502C26.6827 9.37685 27.2645 11.4753 27.3244 13.6202C24.6679 13.5276 21.9347 13.5647 19.3899 12.6963C18.4674 12.3784 17.6276 11.86 16.9316 11.1787C16.2355 10.4974 15.7006 9.67027 15.3658 8.75745C14.426 6.17551 14.4493 3.37593 14.4028 0.666672ZM19.8715 15.1671C22.2999 14.5025 24.8354 14.4817 27.3337 14.4238C27.2359 17.8373 25.8127 21.0802 23.363 23.4709C20.9653 25.8278 17.7676 27.205 14.4004 27.331C14.4655 24.573 14.4191 21.7156 15.4286 19.0989C16.1473 17.1655 17.9013 15.7251 19.8715 15.1671ZM0.667066 14.4284C3.68626 14.5349 6.91032 14.3959 9.66445 15.8363C11.5486 16.7949 12.6581 18.7887 13.0536 20.7963C13.5049 22.9453 13.5188 25.1497 13.5747 27.3333C11.7877 27.265 10.0319 26.8456 8.40832 26.0993C6.78475 25.3529 5.32544 24.2944 4.11432 22.9846C2.00921 20.6596 0.655457 17.5799 0.667066 14.4284Z"/>
  </symbol>

  <!-- pagination-prev -->
  <symbol id="pagination-prev" viewBox="0 0 42 21">
    <g clip-path="url(#clip0_808_77)">
      <path d="M42 10.5C42 9.77513 41.3999 9.1875 40.6596 9.1875L1.78725 9.1875C1.04695 9.1875 0.446819 9.77513 0.446819 10.5C0.446819 11.2249 1.04695 11.8125 1.78725 11.8125L40.6596 11.8125C41.3999 11.8125 42 11.2249 42 10.5Z"/>
      <path d="M12.1181 0.384422C11.5947 -0.128141 10.746 -0.128141 10.2225 0.384422L0.839518 9.57192C0.316049 10.0845 0.316049 10.9155 0.839518 11.4281L10.2225 20.6156C10.746 21.1281 11.5947 21.1281 12.1181 20.6156C12.6416 20.103 12.6416 19.272 12.1181 18.7594L3.68299 10.5L12.1181 2.24058C12.6416 1.72801 12.6416 0.896985 12.1181 0.384422Z"/>
    </g>
    <defs>
      <clipPath id="clip0_808_77">
        <rect transform="matrix(-1 0 0 1 42 0)"/>
      </clipPath>
    </defs>
  </symbol>
  <!-- pagination-next -->
  <symbol id="pagination-next" viewBox="0 0 42 21">
      <g clip-path="url(#clip0_808_72)">
        <path d="M0 10.5C0 9.77513 0.600129 9.1875 1.34043 9.1875L40.2128 9.1875C40.953 9.1875 41.5532 9.77513 41.5532 10.5C41.5532 11.2249 40.953 11.8125 40.2128 11.8125L1.34043 11.8125C0.600129 11.8125 0 11.2249 0 10.5Z"/>
        <path d="M29.8828 0.384422C30.4063 -0.128141 31.255 -0.128141 31.7785 0.384422L41.1615 9.57192C41.6849 10.0845 41.6849 10.9155 41.1615 11.4281L31.7785 20.6156C31.255 21.1281 30.4063 21.1281 29.8828 20.6156C29.3594 20.103 29.3594 19.272 29.8828 18.7594L38.318 10.5L29.8828 2.24058C29.3594 1.72801 29.3594 0.896985 29.8828 0.384422Z"/>
      </g>
  </symbol>


  <!-- Slider Arrows -->
  <!-- pictures-prev -->
  <symbol id="pictures-prev" viewBox="0 0 18 31">
      <path d="M17.5207 0.453985C16.8817 -0.151328 15.8456 -0.151328 15.2066 0.453985L0.479279 14.404C-0.15976 15.0093 -0.15976 15.9907 0.479279 16.596L15.2066 30.546C15.8456 31.1513 16.8817 31.1513 17.5207 30.546C18.1598 29.9407 18.1598 28.9593 17.5207 28.354L3.95053 15.5L17.5207 2.64602C18.1598 2.0407 18.1598 1.0593 17.5207 0.453985Z"/>
  </symbol>
  <!-- pictures-next -->
  <symbol id="pictures-next" viewBox="0 0 18 31">
      <path d="M0.47928 0.453985C1.11832 -0.151328 2.15441 -0.151328 2.79345 0.453985L17.5207 14.404C18.1598 15.0093 18.1598 15.9907 17.5207 16.596L2.79345 30.546C2.15441 31.1513 1.11832 31.1513 0.47928 30.546C-0.15976 29.9407 -0.15976 28.9593 0.47928 28.354L14.0495 15.5L0.47928 2.64602C-0.15976 2.0407 -0.15976 1.0593 0.47928 0.453985Z"/>
  </symbol>






  <!-- <svg class="icon close">
          <use href="./assets/svg/sprite.svg#close"></use>
      </svg> -->

</svg>