<svg width="32" height="32" viewBox="0 0 32 32" fill="none" xmlns="http://www.w3.org/2000/svg">
<path fill-rule="evenodd" clip-rule="evenodd" d="M19.2823 3.32432C20.3341 2.88852 21.4614 2.66422 22.5998 2.66422C23.7383 2.66422 24.8656 2.88852 25.9174 3.32432C26.9689 3.76003 27.9244 4.39862 28.7291 5.20362C29.5341 6.00836 30.1731 6.96423 30.6088 8.01579C31.0446 9.06754 31.2689 10.1948 31.2689 11.3333C31.2689 12.4718 31.0446 13.5991 30.6088 14.6508C30.1731 15.7025 29.5344 16.658 28.7293 17.4628C28.7292 17.4629 28.7294 17.4627 28.7293 17.4628L16.9426 29.2495C16.4219 29.7702 15.5777 29.7702 15.057 29.2495L3.27036 17.4628C1.64472 15.8372 0.731445 13.6323 0.731445 11.3333C0.731445 9.03432 1.64472 6.82948 3.27036 5.20384C4.896 3.5782 7.10083 2.66493 9.39983 2.66493C11.6988 2.66493 13.9037 3.5782 15.5293 5.20384L15.9998 5.67437L16.4701 5.20406C16.4702 5.20399 16.4701 5.20414 16.4701 5.20406C17.2749 4.39896 18.2306 3.76007 19.2823 3.32432ZM22.5998 5.33088C21.8117 5.33088 21.0312 5.48617 20.3031 5.78787C19.5749 6.08958 18.9134 6.53179 18.3562 7.08924L16.9426 8.50279C16.4219 9.02349 15.5777 9.02349 15.057 8.50279L13.6437 7.08946C12.5181 5.96392 10.9916 5.33159 9.39983 5.33159C7.80808 5.33159 6.28152 5.96392 5.15598 7.08946C4.03043 8.215 3.39811 9.74156 3.39811 11.3333C3.39811 12.9251 4.03043 14.4516 5.15598 15.5772L15.9998 26.421L26.8437 15.5772C27.4011 15.02 27.8436 14.3582 28.1453 13.6301C28.447 12.9019 28.6023 12.1215 28.6023 11.3333C28.6023 10.5451 28.447 9.7647 28.1453 9.03656C27.8436 8.30843 27.4014 7.64687 26.8439 7.08968C26.2867 6.53223 25.6247 6.08958 24.8966 5.78787C24.1684 5.48617 23.388 5.33088 22.5998 5.33088Z" fill="#292929"/>
</svg>
