<svg width="47" height="24" viewBox="0 0 47 24" fill="none" xmlns="http://www.w3.org/2000/svg">
<g clip-path="url(#clip0_14_365)">
<path fill-rule="evenodd" clip-rule="evenodd" d="M47 12C47 11.1716 46.3284 10.5 45.5 10.5L2.00001 10.5C1.17159 10.5 0.500011 11.1716 0.500011 12C0.500011 12.8284 1.17159 13.5 2.00001 13.5L45.5 13.5C46.3284 13.5 47 12.8284 47 12Z" fill="#DCE3ED"/>
<path fill-rule="evenodd" clip-rule="evenodd" d="M13.5607 0.43934C12.9749 -0.146447 12.0251 -0.146447 11.4393 0.43934L0.939344 10.9393C0.353558 11.5251 0.353558 12.4749 0.939344 13.0607L11.4393 23.5607C12.0251 24.1464 12.9749 24.1464 13.5607 23.5607C14.1464 22.9749 14.1464 22.0251 13.5607 21.4393L4.12132 12L13.5607 2.56066C14.1464 1.97487 14.1464 1.02513 13.5607 0.43934Z" fill="#DCE3ED"/>
</g>
<defs>
<clipPath id="clip0_14_365">
<rect width="47" height="24" fill="white" transform="matrix(-1 0 0 1 47 0)"/>
</clipPath>
</defs>
</svg>
