<svg width="47" height="24" viewBox="0 0 47 24" fill="none" xmlns="http://www.w3.org/2000/svg">
<g clip-path="url(#clip0_14_353)">
<path fill-rule="evenodd" clip-rule="evenodd" d="M0 12C0 11.1716 0.671573 10.5 1.5 10.5L45 10.5C45.8284 10.5 46.5 11.1716 46.5 12C46.5 12.8284 45.8284 13.5 45 13.5L1.5 13.5C0.671573 13.5 0 12.8284 0 12Z" fill="#9DAABE"/>
<path fill-rule="evenodd" clip-rule="evenodd" d="M33.4393 0.43934C34.0251 -0.146447 34.9749 -0.146447 35.5607 0.43934L46.0607 10.9393C46.6464 11.5251 46.6464 12.4749 46.0607 13.0607L35.5607 23.5607C34.9749 24.1464 34.0251 24.1464 33.4393 23.5607C32.8536 22.9749 32.8536 22.0251 33.4393 21.4393L42.8787 12L33.4393 2.56066C32.8536 1.97487 32.8536 1.02513 33.4393 0.43934Z" fill="#9DAABE"/>
</g>
<defs>
<clipPath id="clip0_14_353">
<rect width="47" height="24" fill="white"/>
</clipPath>
</defs>
</svg>
